<svg width="104" height="104" viewBox="0 0 104 104" fill="none" xmlns="http://www.w3.org/2000/svg">
<g clip-path="url(#clip0_881_9)">
<path d="M-0.000275534 52C0.138391 52.2773 0.311724 52.6587 0.519724 53.144C0.727724 53.6293 1.24772 54.6347 2.07972 56.16C2.91172 57.6853 3.81306 59.1413 4.78372 60.528C5.75439 61.9147 7.10639 63.5787 8.83972 65.52C10.5731 67.4613 12.3757 69.2987 14.2477 71.032C16.1197 72.7653 18.4424 74.464 21.2157 76.128C23.9891 77.792 26.8317 79.248 29.7437 80.496C32.6557 81.744 36.0531 82.7147 39.9357 83.408C43.8184 84.1013 47.8397 84.4827 51.9997 84.552C56.1597 84.6213 60.181 84.24 64.0637 83.408C67.9464 82.576 71.3784 81.5707 74.3597 80.392C77.341 79.2133 80.149 77.792 82.7837 76.128C85.4184 74.464 87.741 72.7307 89.7517 70.928C91.7624 69.1253 93.565 67.3573 95.1597 65.624C96.7544 63.8907 98.1064 62.1573 99.2157 60.424C100.325 58.6907 101.226 57.2693 101.92 56.16C102.613 55.0507 103.133 54.0453 103.48 53.144L104 52C103.93 51.7227 103.757 51.3413 103.48 50.856C103.202 50.3707 102.682 49.4 101.92 47.944C101.157 46.488 100.256 45.032 99.2157 43.576C98.1757 42.12 96.8237 40.4213 95.1597 38.48C93.4957 36.5387 91.693 34.736 89.7517 33.072C87.8104 31.408 85.4877 29.7093 82.7837 27.976C80.0797 26.2427 77.237 24.7867 74.2557 23.608C71.2744 22.4293 67.877 21.4587 64.0637 20.696C60.2504 19.9333 56.229 19.552 51.9997 19.552C47.7704 19.552 43.7491 19.9333 39.9357 20.696C36.1224 21.4587 32.6904 22.4293 29.6397 23.608C26.5891 24.7867 23.7811 26.2427 21.2157 27.976C18.6504 29.7093 16.3277 31.408 14.2477 33.072C12.1677 34.736 10.3651 36.5387 8.83972 38.48C7.31439 40.4213 5.96239 42.12 4.78372 43.576C3.60506 45.032 2.70372 46.488 2.07972 47.944C1.45572 49.4 0.935724 50.4053 0.519724 50.96L-0.000275534 52ZM32.5517 52C32.5517 46.6613 34.4237 42.0853 38.1677 38.272C41.9117 34.4587 46.5224 32.552 51.9997 32.552C57.477 32.552 62.0877 34.4587 65.8317 38.272C69.5757 42.0853 71.4824 46.6613 71.5517 52C71.6211 57.3387 69.7144 61.9493 65.8317 65.832C61.9491 69.7147 57.3384 71.6213 51.9997 71.552C46.6611 71.4827 42.0504 69.576 38.1677 65.832C34.2851 62.088 32.4131 57.4773 32.5517 52ZM38.9997 52C38.9997 55.6053 40.2824 58.6907 42.8477 61.256C45.413 63.8213 48.4637 65.0693 51.9997 65C55.5357 64.9307 58.5864 63.6827 61.1517 61.256C63.717 58.8293 64.9997 55.744 64.9997 52C64.9997 48.256 63.717 45.2053 61.1517 42.848C58.5864 40.4907 55.5357 39.208 51.9997 39C48.4637 38.792 45.413 40.0747 42.8477 42.848L51.9997 52H38.9997Z" fill="white"/>
</g>
<defs>
<clipPath id="clip0_881_9">
<rect width="103.669" height="103.669" fill="white" transform="scale(1.00319)"/>
</clipPath>
</defs>
</svg>
