<svg width="104" height="104" viewBox="0 0 104 104" fill="none" xmlns="http://www.w3.org/2000/svg">
<g clip-path="url(#clip0_881_11)">
<path d="M91.8296 21.4639C85.119 21.4639 79.6594 26.9234 79.6594 33.6341C79.6594 36.4754 80.6407 39.0902 82.2789 41.1635L69.4564 58.9353C66.8357 57.9739 63.8532 57.9242 61.0968 58.9353L48.2743 41.1635C49.9121 39.0904 50.8936 36.4756 50.8936 33.6341C50.8936 26.9234 45.434 21.4639 38.7234 21.4639C32.0128 21.4639 26.5532 26.9234 26.5532 33.6341C26.5532 36.4754 27.5345 39.0902 29.1727 41.1635L16.3502 58.9353C8.43482 56.0319 -0.000145421 61.9217 -0.000145421 70.366C-0.000145421 77.0766 5.45945 82.5362 12.1701 82.5362C18.8807 82.5362 24.3403 77.0766 24.3403 70.366C24.3403 67.5245 23.359 64.9096 21.7208 62.8366L34.5433 45.0647C37.164 46.0261 40.1465 46.0759 42.9029 45.0647L55.7254 62.8366C54.0876 64.9096 53.1061 67.5245 53.1061 70.366C53.1061 77.0766 58.5657 82.5362 65.2763 82.5362C71.9869 82.5362 77.4465 77.0766 77.4465 70.366C77.4465 67.5245 76.4652 64.9096 74.827 62.8366L87.6495 45.0647C95.5649 47.9682 104 42.0784 104 33.6341C104 26.9234 98.5402 21.4639 91.8296 21.4639Z" fill="white"/>
</g>
<defs>
<clipPath id="clip0_881_11">
<rect width="103.669" height="103.669" fill="white" transform="scale(1.00319)"/>
</clipPath>
</defs>
</svg>
