<svg width="33" height="33" viewBox="0 0 33 33" fill="none" xmlns="http://www.w3.org/2000/svg">
<path d="M33 4.95V8.25C33 8.68761 32.8262 9.10729 32.5167 9.41672C32.2073 9.72616 31.7876 9.9 31.35 9.9H21.45C21.0124 9.9 20.5927 9.72616 20.2833 9.41672C19.9738 9.10729 19.8 8.68761 19.8 8.25H3.3V16.5H19.8C19.8 16.0624 19.9738 15.6427 20.2833 15.3333C20.5927 15.0238 21.0124 14.85 21.45 14.85H31.35C31.7876 14.85 32.2073 15.0238 32.5167 15.3333C32.8262 15.6427 33 16.0624 33 16.5V19.8C33 20.2376 32.8262 20.6573 32.5167 20.9667C32.2073 21.2762 31.7876 21.45 31.35 21.45H21.45C21.0124 21.45 20.5927 21.2762 20.2833 20.9667C19.9738 20.6573 19.8 20.2376 19.8 19.8H3.3V28.05H19.8C19.8 27.6124 19.9738 27.1927 20.2833 26.8833C20.5927 26.5738 21.0124 26.4 21.45 26.4H31.35C31.7876 26.4 32.2073 26.5738 32.5167 26.8833C32.8262 27.1927 33 27.6124 33 28.05V31.35C33 31.7876 32.8262 32.2073 32.5167 32.5167C32.2073 32.8262 31.7876 33 31.35 33H21.45C21.0124 33 20.5927 32.8262 20.2833 32.5167C19.9738 32.2073 19.8 31.7876 19.8 31.35H1.65C1.21239 31.35 0.792709 31.1762 0.483274 30.8667C0.173839 30.5573 0 30.1376 0 29.7V1.65C0 1.21239 0.173839 0.792709 0.483274 0.483274C0.792709 0.173839 1.21239 0 1.65 0C2.08761 0 2.50729 0.173839 2.81673 0.483274C3.12616 0.792709 3.3 1.21239 3.3 1.65V4.95H19.8C19.8 4.51239 19.9738 4.09271 20.2833 3.78327C20.5927 3.47384 21.0124 3.3 21.45 3.3H31.35C31.7876 3.3 32.2073 3.47384 32.5167 3.78327C32.8262 4.09271 33 4.51239 33 4.95Z" fill="white"/>
</svg>
