<svg width="76" height="70" viewBox="0 0 76 70" fill="none" xmlns="http://www.w3.org/2000/svg">
<path d="M57.8309 5.54176L60.5232 2.67844C63.813 -0.820491 69.2511 -0.901908 72.6401 2.49631L72.7757 2.63226C76.1453 6.01106 76.1457 11.4914 72.7757 14.8707L72.6401 15.0066C69.2525 18.4035 63.8114 18.3217 60.5232 14.8245L57.8309 11.9612L55.1387 14.8245C51.8505 18.3217 46.4094 18.4035 43.0218 15.0066L42.8862 14.8707C39.5161 11.4914 39.5165 6.01106 42.8862 2.63226L43.0218 2.49631C46.4108 -0.901908 51.8489 -0.820491 55.1387 2.67844L57.8309 5.54176ZM51.9641 5.67966C50.3614 3.97519 47.7562 3.93619 46.107 5.5899L45.9714 5.72586C44.3055 7.39622 44.3053 10.1065 45.9714 11.7771L46.107 11.913C47.7548 13.5653 50.363 13.5261 51.9641 11.8233L54.8523 8.75148L51.9641 5.67966ZM63.6978 11.8233C65.2988 13.5261 67.9071 13.5653 69.5549 11.913L69.6905 11.7771C71.3565 10.1065 71.3563 7.39622 69.6905 5.72586L69.5549 5.5899C67.9057 3.93619 65.3004 3.97519 63.6978 5.67966L60.8095 8.75148L63.6978 11.8233ZM45.8127 65.625H49.085V26.25C49.085 25.0419 50.0618 24.0625 51.2666 24.0625H64.3559C65.5608 24.0625 66.5375 25.0419 66.5375 26.25V65.625H71.9914C73.1962 65.625 74.173 66.6044 74.173 67.8125C74.173 69.0206 73.1962 70 71.9914 70H2.18156C0.976717 70 0 69.0206 0 67.8125C0 66.6044 0.976717 65.625 2.18156 65.625H7.63545V50.3125C7.63545 49.1044 8.61217 48.125 9.81701 48.125H22.9064C24.1112 48.125 25.0879 49.1044 25.0879 50.3125V65.625H28.3602V40.4688C28.3602 39.2606 29.337 38.2813 30.5418 38.2813H43.6311C44.836 38.2813 45.8127 39.2606 45.8127 40.4688V65.625Z" fill="white"/>
</svg>
