<svg width="378" height="378" viewBox="0 0 378 378" fill="none" xmlns="http://www.w3.org/2000/svg">
<rect x="2" y="2" width="374" height="374" rx="187" fill="url(#paint0_linear_25_8)"/>
<rect x="2" y="2" width="374" height="374" rx="187" stroke="white" stroke-width="4"/>
<path d="M182.55 44.5023C160.949 46.5851 141.398 60.0562 131.454 79.6414L129.707 83.1015H127.994C121.678 83.1015 113.784 87.6367 109.887 93.5156C106.191 99.0922 105.587 102.183 105.788 114.78C105.923 125.396 106.091 126.337 108.341 130.973C112.238 138.901 120.838 144.242 129.674 144.242C134.679 144.242 139.785 142.63 141.163 140.58C142.439 138.666 142.271 136.986 140.323 132.988C134.175 120.357 132.966 106.684 136.762 93.4148C141.599 76.6515 155.138 62.643 171.867 57.1C187.992 51.7586 205.024 54.0765 219.167 63.5164C231.463 71.6797 239.861 84.5461 242.649 99.3945C243.489 103.795 243.456 113.705 242.616 118.207C239.122 137.087 226.088 152.876 208.552 159.527C205.629 160.636 200.556 162.047 199.549 162.047C199.045 162.047 198.675 161.711 198.373 161.005C198.138 160.401 197.163 159.124 196.189 158.116C189.504 151.263 177.612 153.245 173.681 161.879C169.818 170.311 174.79 179.919 183.927 181.598C189.638 182.673 196.088 179.348 198.843 173.939L199.683 172.293L202.639 171.688C217.353 168.698 231.295 159.695 240.701 147.165L243.153 143.906L246.58 144.141C258.17 144.847 268.416 137.49 271.506 126.27C272.38 123.179 272.581 106.348 271.809 102.519C270.734 97.1773 268.248 92.743 264.384 89.182C260.622 85.7219 254.374 83.1015 250.006 83.1015H248.259L246.983 80.4812C234.99 56.1258 209.492 41.9156 182.55 44.5023Z" fill="white"/>
<path d="M184.498 66.6406C174.521 67.7828 165.182 72.4524 158.295 79.7422C152.786 85.6211 149.259 92.4742 147.478 100.738C146.773 104.098 146.672 112.127 147.31 115.688C148.587 123.011 152.719 131.678 157.12 136.348L158.06 137.355L155.709 146.09C154.197 151.767 153.424 155.16 153.559 155.798C153.827 157.31 154.97 158.889 156.213 159.494C158.665 160.636 159.236 160.434 169.045 154.791L178.183 149.584L180.971 150.188C184.868 151.028 193.132 151.028 197.063 150.188C205.528 148.374 212.616 144.612 218.529 138.8C224.777 132.652 229.178 124.321 230.69 115.688C231.328 112.127 231.227 104.098 230.522 100.738C227.902 88.4766 220.948 78.6336 210.466 72.318C203.143 67.9172 192.931 65.7 184.498 66.6406ZM174.387 104.266C179.09 106.55 177.444 113.672 172.17 113.672C167.97 113.672 165.72 108.801 168.407 105.576C170.087 103.594 172.102 103.157 174.387 104.266ZM191.654 104.534C193.871 106.18 194.577 108.566 193.502 110.85C191.956 114.075 187.253 114.613 185.103 111.824C183.558 109.809 183.591 107.491 185.204 105.576C186.917 103.56 189.706 103.09 191.654 104.534ZM208.451 104.501C212.281 107.39 211.105 112.966 206.502 113.571C203.009 114.041 200.052 110.85 200.892 107.491C201.161 106.348 202.706 104.602 203.949 104.064C205.226 103.459 207.309 103.695 208.451 104.501Z" fill="white"/>
<path d="M100.106 257V201.43H138.93V211.493H111.671V226.061H135.476V235.748H111.671V257H100.106ZM148.434 257V201.43H170.962C175.067 201.43 178.572 202.156 181.475 203.608C184.429 205.06 186.682 207.062 188.234 209.615C189.836 212.169 190.637 215.122 190.637 218.477C190.637 222.131 189.711 225.335 187.858 228.089C186.006 230.792 183.378 232.77 179.973 234.021L192.064 257H179.222L168.184 235.598H159.998V257H148.434ZM170.812 211.418H159.998V226.136H170.812C173.365 226.136 175.368 225.435 176.819 224.034C178.271 222.632 178.997 220.905 178.997 218.852C178.997 216.749 178.271 214.997 176.819 213.595C175.368 212.144 173.365 211.418 170.812 211.418ZM201.894 257V201.43H240.193V211.493H213.459V223.958H236.738V233.646H213.459V246.937H240.568V257H201.894ZM250.075 257V201.43H288.373V211.493H261.64V223.958H284.919V233.646H261.64V246.937H288.749V257H250.075Z" fill="white"/>
<path d="M92.1915 305.375C90.0159 305.375 88.1029 304.975 86.4525 304.175C84.8021 303.35 83.4267 302.262 82.3264 300.911C81.2511 299.536 80.4384 298.011 79.8883 296.335C79.3381 294.635 79.063 292.897 79.063 291.121C79.063 289.346 79.3381 287.608 79.8883 285.907C80.4384 284.207 81.2511 282.682 82.3264 281.331C83.4267 279.956 84.8021 278.868 86.4525 278.068C88.1029 277.268 90.0159 276.868 92.1915 276.868C93.992 276.868 95.5299 277.105 96.8052 277.58C98.1056 278.03 99.1809 278.618 100.031 279.343C100.906 280.068 101.607 280.844 102.132 281.669C102.682 282.494 103.082 283.269 103.332 283.994C103.607 284.72 103.782 285.32 103.857 285.795C103.957 286.245 104.007 286.47 104.007 286.47H100.331C100.331 286.47 100.281 286.27 100.181 285.87C100.081 285.445 99.8811 284.932 99.581 284.332C99.2809 283.707 98.8308 283.082 98.2306 282.457C97.6305 281.831 96.8428 281.319 95.8675 280.919C94.8922 280.494 93.6794 280.281 92.229 280.281C90.6536 280.281 89.2783 280.594 88.1029 281.219C86.9276 281.819 85.9399 282.644 85.1397 283.694C84.3645 284.72 83.7768 285.882 83.3767 287.183C83.0016 288.458 82.814 289.771 82.814 291.121C82.814 292.472 83.0016 293.797 83.3767 295.097C83.7768 296.373 84.3645 297.536 85.1397 298.586C85.9399 299.611 86.9276 300.436 88.1029 301.061C89.2783 301.662 90.6536 301.962 92.229 301.962C93.6794 301.962 94.8922 301.749 95.8675 301.324C96.8428 300.899 97.6305 300.386 98.2306 299.786C98.8308 299.161 99.2809 298.548 99.581 297.948C99.8811 297.323 100.081 296.798 100.181 296.373C100.281 295.948 100.331 295.735 100.331 295.735H104.007C104.007 295.735 103.957 295.973 103.857 296.448C103.782 296.898 103.607 297.498 103.332 298.248C103.082 298.973 102.682 299.749 102.132 300.574C101.607 301.374 100.906 302.149 100.031 302.899C99.1809 303.625 98.1056 304.225 96.8052 304.7C95.5299 305.15 93.992 305.375 92.1915 305.375ZM117.75 305.375C115.625 305.375 113.837 304.887 112.387 303.912C110.936 302.912 109.836 301.624 109.086 300.049C108.335 298.473 107.96 296.81 107.96 295.06C107.96 293.284 108.335 291.621 109.086 290.071C109.836 288.496 110.936 287.22 112.387 286.245C113.837 285.245 115.625 284.745 117.75 284.745C119.876 284.745 121.664 285.245 123.114 286.245C124.565 287.22 125.665 288.496 126.415 290.071C127.165 291.621 127.541 293.284 127.541 295.06C127.541 296.81 127.165 298.473 126.415 300.049C125.665 301.624 124.565 302.912 123.114 303.912C121.664 304.887 119.876 305.375 117.75 305.375ZM117.75 302.262C119.101 302.262 120.226 301.924 121.126 301.249C122.052 300.549 122.739 299.649 123.189 298.548C123.665 297.448 123.902 296.285 123.902 295.06C123.902 293.81 123.665 292.647 123.189 291.571C122.739 290.471 122.052 289.583 121.126 288.908C120.226 288.208 119.101 287.858 117.75 287.858C116.425 287.858 115.3 288.208 114.375 288.908C113.449 289.583 112.749 290.471 112.274 291.571C111.824 292.647 111.599 293.81 111.599 295.06C111.599 296.285 111.824 297.448 112.274 298.548C112.749 299.649 113.449 300.549 114.375 301.249C115.3 301.924 116.425 302.262 117.75 302.262ZM132.027 305V285.12H135.59V288.008H135.815C135.99 287.708 136.278 287.295 136.678 286.77C137.103 286.245 137.703 285.782 138.478 285.382C139.254 284.957 140.229 284.745 141.404 284.745C142.855 284.745 144.092 285.082 145.118 285.757C146.143 286.408 146.918 287.295 147.443 288.421C147.994 289.546 148.269 290.809 148.269 292.209V305H144.705V292.434C144.705 291.109 144.33 290.009 143.58 289.133C142.855 288.258 141.792 287.82 140.391 287.82C139.266 287.82 138.353 288.108 137.653 288.683C136.953 289.233 136.428 289.971 136.078 290.896C135.753 291.797 135.59 292.759 135.59 293.785V305H132.027ZM160.431 305.375C158.905 305.375 157.643 305.163 156.642 304.737C155.667 304.312 154.892 303.787 154.317 303.162C153.742 302.512 153.316 301.874 153.041 301.249C152.766 300.599 152.591 300.061 152.516 299.636C152.441 299.211 152.404 298.998 152.404 298.998H156.005C156.005 298.998 156.042 299.173 156.117 299.524C156.217 299.849 156.405 300.236 156.68 300.686C156.98 301.111 157.43 301.499 158.03 301.849C158.655 302.174 159.481 302.337 160.506 302.337C161.681 302.337 162.594 302.062 163.244 301.512C163.894 300.936 164.219 300.236 164.219 299.411C164.219 298.686 163.957 298.111 163.432 297.686C162.932 297.26 162.206 296.935 161.256 296.71L158.555 296.073C157.555 295.823 156.617 295.485 155.742 295.06C154.867 294.635 154.154 294.06 153.604 293.334C153.079 292.584 152.816 291.659 152.816 290.559C152.816 288.858 153.454 287.47 154.729 286.395C156.005 285.295 157.668 284.745 159.718 284.745C161.094 284.745 162.231 284.945 163.132 285.345C164.032 285.72 164.745 286.195 165.27 286.77C165.82 287.345 166.22 287.92 166.47 288.496C166.745 289.071 166.92 289.558 166.995 289.959C167.07 290.334 167.108 290.521 167.108 290.521H163.657C163.657 290.521 163.619 290.384 163.544 290.109C163.469 289.808 163.294 289.483 163.019 289.133C162.769 288.758 162.381 288.433 161.856 288.158C161.331 287.858 160.631 287.708 159.756 287.708C158.555 287.708 157.68 287.983 157.13 288.533C156.58 289.083 156.305 289.683 156.305 290.334C156.305 290.959 156.555 291.471 157.055 291.872C157.58 292.247 158.255 292.534 159.081 292.734L161.819 293.372C163.519 293.772 164.92 294.435 166.02 295.36C167.145 296.26 167.708 297.561 167.708 299.261C167.708 300.361 167.42 301.387 166.845 302.337C166.27 303.262 165.445 304 164.369 304.55C163.294 305.1 161.981 305.375 160.431 305.375ZM178.316 305.375C176.341 305.375 174.765 304.762 173.59 303.537C172.415 302.312 171.827 300.611 171.827 298.436V285.12H175.39V298.248C175.39 299.549 175.74 300.549 176.441 301.249C177.166 301.949 178.116 302.299 179.291 302.299C180.492 302.299 181.454 301.987 182.18 301.362C182.905 300.736 183.43 299.936 183.755 298.961C184.08 297.986 184.243 296.985 184.243 295.96V285.12H187.806V305H184.243V302.149H184.018C183.868 302.449 183.58 302.862 183.155 303.387C182.73 303.887 182.13 304.35 181.354 304.775C180.579 305.175 179.566 305.375 178.316 305.375ZM193.073 305L193.11 276.492H196.636V305H193.073ZM210.323 305.375C208.272 305.375 206.722 304.85 205.672 303.8C204.646 302.749 204.134 301.274 204.134 299.374V288.046H200.57V285.12H204.134V280.131H207.697V285.12H212.536V288.046H207.697V299.374C207.697 300.374 207.972 301.111 208.522 301.587C209.073 302.037 209.873 302.262 210.923 302.262C211.473 302.262 211.998 302.224 212.498 302.149C212.999 302.074 213.249 302.037 213.249 302.037V305.075C213.249 305.075 212.961 305.125 212.386 305.225C211.811 305.325 211.123 305.375 210.323 305.375ZM225.447 284.745C226.697 284.745 227.748 284.945 228.598 285.345C229.448 285.745 230.136 286.22 230.661 286.77C231.186 287.295 231.586 287.795 231.861 288.271H232.086V285.12H235.65V305H232.086V301.849H231.861C231.586 302.324 231.186 302.837 230.661 303.387C230.136 303.937 229.448 304.412 228.598 304.812C227.748 305.188 226.697 305.375 225.447 305.375C223.947 305.375 222.634 305.088 221.508 304.512C220.383 303.912 219.445 303.125 218.695 302.149C217.945 301.149 217.382 300.036 217.007 298.811C216.632 297.586 216.445 296.335 216.445 295.06C216.445 293.785 216.632 292.534 217.007 291.309C217.382 290.084 217.945 288.983 218.695 288.008C219.445 287.008 220.383 286.22 221.508 285.645C222.634 285.045 223.947 284.745 225.447 284.745ZM226.047 287.783C224.722 287.783 223.609 288.146 222.709 288.871C221.809 289.571 221.133 290.471 220.683 291.571C220.258 292.672 220.046 293.835 220.046 295.06C220.046 296.26 220.258 297.423 220.683 298.548C221.133 299.649 221.809 300.561 222.709 301.287C223.609 301.987 224.722 302.337 226.047 302.337C227.373 302.337 228.473 301.987 229.348 301.287C230.248 300.561 230.911 299.649 231.336 298.548C231.786 297.423 232.011 296.26 232.011 295.06C232.011 293.835 231.786 292.672 231.336 291.571C230.911 290.471 230.248 289.571 229.348 288.871C228.473 288.146 227.373 287.783 226.047 287.783ZM248.218 305.375C246.168 305.375 244.617 304.85 243.567 303.8C242.542 302.749 242.029 301.274 242.029 299.374V288.046H238.466V285.12H242.029V280.131H245.592V285.12H250.431V288.046H245.592V299.374C245.592 300.374 245.868 301.111 246.418 301.587C246.968 302.037 247.768 302.262 248.818 302.262C249.368 302.262 249.894 302.224 250.394 302.149C250.894 302.074 251.144 302.037 251.144 302.037V305.075C251.144 305.075 250.856 305.125 250.281 305.225C249.706 305.325 249.018 305.375 248.218 305.375ZM257.773 281.331C257.098 281.331 256.535 281.106 256.085 280.656C255.66 280.206 255.448 279.668 255.448 279.043C255.448 278.393 255.66 277.843 256.085 277.393C256.535 276.943 257.098 276.718 257.773 276.718C258.423 276.718 258.974 276.943 259.424 277.393C259.874 277.843 260.099 278.393 260.099 279.043C260.099 279.668 259.874 280.206 259.424 280.656C258.974 281.106 258.423 281.331 257.773 281.331ZM256.01 305V285.12H259.574V305H256.01ZM274.378 305.375C272.252 305.375 270.464 304.887 269.014 303.912C267.564 302.912 266.463 301.624 265.713 300.049C264.963 298.473 264.588 296.81 264.588 295.06C264.588 293.284 264.963 291.621 265.713 290.071C266.463 288.496 267.564 287.22 269.014 286.245C270.464 285.245 272.252 284.745 274.378 284.745C276.503 284.745 278.291 285.245 279.742 286.245C281.192 287.22 282.292 288.496 283.043 290.071C283.793 291.621 284.168 293.284 284.168 295.06C284.168 296.81 283.793 298.473 283.043 300.049C282.292 301.624 281.192 302.912 279.742 303.912C278.291 304.887 276.503 305.375 274.378 305.375ZM274.378 302.262C275.728 302.262 276.854 301.924 277.754 301.249C278.679 300.549 279.367 299.649 279.817 298.548C280.292 297.448 280.529 296.285 280.529 295.06C280.529 293.81 280.292 292.647 279.817 291.571C279.367 290.471 278.679 289.583 277.754 288.908C276.854 288.208 275.728 287.858 274.378 287.858C273.053 287.858 271.927 288.208 271.002 288.908C270.077 289.583 269.377 290.471 268.901 291.571C268.451 292.647 268.226 293.81 268.226 295.06C268.226 296.285 268.451 297.448 268.901 298.548C269.377 299.649 270.077 300.549 271.002 301.249C271.927 301.924 273.053 302.262 274.378 302.262ZM288.654 305V285.12H292.218V288.008H292.443C292.618 287.708 292.905 287.295 293.305 286.77C293.731 286.245 294.331 285.782 295.106 285.382C295.881 284.957 296.856 284.745 298.032 284.745C299.482 284.745 300.72 285.082 301.745 285.757C302.77 286.408 303.546 287.295 304.071 288.421C304.621 289.546 304.896 290.809 304.896 292.209V305H301.333V292.434C301.333 291.109 300.957 290.009 300.207 289.133C299.482 288.258 298.419 287.82 297.019 287.82C295.894 287.82 294.981 288.108 294.281 288.683C293.581 289.233 293.055 289.971 292.705 290.896C292.38 291.797 292.218 292.759 292.218 293.785V305H288.654Z" fill="white"/>
<defs>
<linearGradient id="paint0_linear_25_8" x1="189" y1="-94.5" x2="189" y2="378" gradientUnits="userSpaceOnUse">
<stop stop-color="#2C4265"/>
<stop offset="1" stop-color="#285396"/>
</linearGradient>
</defs>
</svg>
